<svg width="154" height="38" viewBox="0 0 154 38" fill="none" xmlns="http://www.w3.org/2000/svg">
<path d="M14.7119 22.3877H5.55664L5.50781 16.7725H12.9297C14.2643 16.7725 15.3304 16.626 16.1279 16.333C16.9255 16.0238 17.5033 15.5762 17.8613 14.9902C18.2357 14.4043 18.4229 13.6719 18.4229 12.793C18.4229 11.7839 18.2357 10.9701 17.8613 10.3516C17.487 9.73307 16.8929 9.28548 16.0791 9.00879C15.2816 8.71582 14.248 8.56934 12.9785 8.56934H8.7793V37.5H0.209961V1.95312H12.9785C15.1758 1.95312 17.137 2.15658 18.8623 2.56348C20.5876 2.9541 22.0524 3.55632 23.2568 4.37012C24.4775 5.18392 25.4053 6.20931 26.04 7.44629C26.6748 8.66699 26.9922 10.1074 26.9922 11.7676C26.9922 13.2161 26.6829 14.5752 26.0645 15.8447C25.446 17.1143 24.4124 18.1478 22.9639 18.9453C21.5316 19.7266 19.5703 20.1335 17.0801 20.166L14.7119 22.3877ZM14.3701 37.5H3.48145L6.41113 30.9082H14.3701C15.542 30.9082 16.4779 30.7292 17.1777 30.3711C17.8939 29.9967 18.4066 29.5085 18.7158 28.9062C19.0413 28.2878 19.2041 27.6042 19.2041 26.8555C19.2041 25.944 19.0495 25.1546 18.7402 24.4873C18.4473 23.82 17.9753 23.3073 17.3242 22.9492C16.6732 22.5749 15.8024 22.3877 14.7119 22.3877H7.50977L7.55859 16.7725H16.1768L18.1787 19.0186C20.555 18.9209 22.4349 19.2546 23.8184 20.0195C25.2181 20.7845 26.2191 21.7936 26.8213 23.0469C27.4235 24.3001 27.7246 25.6104 27.7246 26.9775C27.7246 29.305 27.2201 31.25 26.2109 32.8125C25.2181 34.375 23.7288 35.5469 21.7432 36.3281C19.7575 37.1094 17.2998 37.5 14.3701 37.5ZM40.7861 11.084V37.5H32.5342V11.084H40.7861ZM32.0459 4.27246C32.0459 3.10059 32.4691 2.1403 33.3154 1.3916C34.1618 0.642904 35.2604 0.268555 36.6113 0.268555C37.9622 0.268555 39.0609 0.642904 39.9072 1.3916C40.7536 2.1403 41.1768 3.10059 41.1768 4.27246C41.1768 5.44434 40.7536 6.40462 39.9072 7.15332C39.0609 7.90202 37.9622 8.27637 36.6113 8.27637C35.2604 8.27637 34.1618 7.90202 33.3154 7.15332C32.4691 6.40462 32.0459 5.44434 32.0459 4.27246ZM59.707 30.0781C59.707 29.6224 59.5524 29.2318 59.2432 28.9062C58.9502 28.5645 58.4294 28.2552 57.6807 27.9785C56.932 27.6855 55.8822 27.3926 54.5312 27.0996C53.2454 26.8229 52.0329 26.4567 50.8936 26.001C49.7705 25.5452 48.7858 24.9919 47.9395 24.3408C47.0931 23.6898 46.4258 22.9167 45.9375 22.0215C45.4655 21.1263 45.2295 20.1009 45.2295 18.9453C45.2295 17.8223 45.4655 16.7643 45.9375 15.7715C46.4258 14.7624 47.1338 13.8753 48.0615 13.1104C49.0055 12.3291 50.153 11.7188 51.5039 11.2793C52.8548 10.8236 54.3929 10.5957 56.1182 10.5957C58.4945 10.5957 60.5452 10.9619 62.2705 11.6943C63.9958 12.4105 65.3223 13.4196 66.25 14.7217C67.194 16.0075 67.666 17.4967 67.666 19.1895H59.4385C59.4385 18.5221 59.3245 17.9525 59.0967 17.4805C58.8851 17.0085 58.5352 16.6504 58.0469 16.4062C57.5586 16.1458 56.9076 16.0156 56.0938 16.0156C55.5241 16.0156 55.0033 16.1214 54.5312 16.333C54.0755 16.5446 53.7093 16.8376 53.4326 17.2119C53.1559 17.5863 53.0176 18.0257 53.0176 18.5303C53.0176 18.8883 53.099 19.2139 53.2617 19.5068C53.4408 19.7835 53.7093 20.0439 54.0674 20.2881C54.4255 20.516 54.8812 20.7275 55.4346 20.9229C55.988 21.1019 56.6553 21.2646 57.4365 21.4111C59.2106 21.7367 60.8708 22.2005 62.417 22.8027C63.9632 23.4049 65.2165 24.2594 66.1768 25.3662C67.1533 26.473 67.6416 27.9622 67.6416 29.834C67.6416 31.0059 67.373 32.0882 66.8359 33.0811C66.2988 34.0576 65.5257 34.9202 64.5166 35.6689C63.5075 36.4014 62.2949 36.971 60.8789 37.3779C59.4629 37.7848 57.8678 37.9883 56.0938 37.9883C53.571 37.9883 51.4388 37.5407 49.6973 36.6455C47.9557 35.734 46.6374 34.5947 45.7422 33.2275C44.8633 31.8441 44.4238 30.4443 44.4238 29.0283H52.0898C52.1224 29.8421 52.3177 30.5094 52.6758 31.0303C53.0501 31.5511 53.5465 31.9336 54.165 32.1777C54.7835 32.4219 55.4997 32.5439 56.3135 32.5439C57.0622 32.5439 57.6807 32.4382 58.1689 32.2266C58.6735 32.015 59.056 31.7301 59.3164 31.3721C59.5768 30.9977 59.707 30.5664 59.707 30.0781Z" fill="black"/>
<path d="M95.376 30.9082V37.5H77.4072V30.9082H95.376ZM80.459 1.95312V37.5H71.8896V1.95312H80.459ZM107.29 11.084V37.5H99.0381V11.084H107.29ZM98.5498 4.27246C98.5498 3.10059 98.973 2.1403 99.8193 1.3916C100.666 0.642904 101.764 0.268555 103.115 0.268555C104.466 0.268555 105.565 0.642904 106.411 1.3916C107.257 2.1403 107.681 3.10059 107.681 4.27246C107.681 5.44434 107.257 6.40462 106.411 7.15332C105.565 7.90202 104.466 8.27637 103.115 8.27637C101.764 8.27637 100.666 7.90202 99.8193 7.15332C98.973 6.40462 98.5498 5.44434 98.5498 4.27246ZM126.284 11.084V16.7969H110.366V11.084H126.284ZM113.711 4.5166H121.938V28.8818C121.938 29.5817 122.02 30.127 122.183 30.5176C122.345 30.8919 122.622 31.1605 123.013 31.3232C123.42 31.4697 123.957 31.543 124.624 31.543C125.096 31.543 125.487 31.5348 125.796 31.5186C126.105 31.486 126.398 31.4453 126.675 31.3965V37.2803C125.975 37.5081 125.243 37.679 124.478 37.793C123.713 37.9232 122.899 37.9883 122.036 37.9883C120.278 37.9883 118.773 37.7116 117.52 37.1582C116.283 36.6048 115.339 35.734 114.688 34.5459C114.036 33.3577 113.711 31.8115 113.711 29.9072V4.5166ZM142.349 37.9883C140.2 37.9883 138.28 37.6546 136.587 36.9873C134.894 36.3037 133.462 35.3678 132.29 34.1797C131.134 32.9915 130.247 31.6243 129.629 30.0781C129.027 28.5319 128.726 26.8962 128.726 25.1709V24.2432C128.726 22.3063 128.994 20.516 129.531 18.8721C130.068 17.2119 130.866 15.7633 131.924 14.5264C132.982 13.2894 134.308 12.3291 135.903 11.6455C137.498 10.9456 139.354 10.5957 141.47 10.5957C143.341 10.5957 145.018 10.8968 146.499 11.499C147.98 12.1012 149.233 12.9639 150.259 14.0869C151.3 15.21 152.09 16.569 152.627 18.1641C153.18 19.7591 153.457 21.5495 153.457 23.5352V26.8799H131.875V21.7285H145.425V21.0938C145.441 20.2148 145.286 19.4661 144.961 18.8477C144.652 18.2292 144.196 17.7572 143.594 17.4316C142.992 17.1061 142.259 16.9434 141.396 16.9434C140.501 16.9434 139.761 17.1387 139.175 17.5293C138.605 17.9199 138.158 18.457 137.832 19.1406C137.523 19.8079 137.303 20.5811 137.173 21.46C137.043 22.3389 136.978 23.2666 136.978 24.2432V25.1709C136.978 26.1475 137.108 27.0345 137.368 27.832C137.645 28.6296 138.035 29.3132 138.54 29.8828C139.061 30.4362 139.679 30.8675 140.396 31.1768C141.128 31.486 141.958 31.6406 142.886 31.6406C144.009 31.6406 145.116 31.429 146.206 31.0059C147.297 30.5827 148.232 29.8828 149.014 28.9062L152.749 33.3496C152.212 34.1146 151.447 34.8551 150.454 35.5713C149.478 36.2874 148.306 36.8734 146.938 37.3291C145.571 37.7686 144.041 37.9883 142.349 37.9883Z" fill="#2AACC8"/>
</svg>
